<?xml version="1.0" encoding="UTF-8"?>
<!DOCTYPE svg PUBLIC "-//W3C//DTD SVG 1.1//EN" "http://www.w3.org/Graphics/SVG/1.1/DTD/svg11.dtd">
<!-- Creator: CorelDRAW -->
<svg xmlns="http://www.w3.org/2000/svg" xml:space="preserve" width="2.0461mm" height="2.0464mm" version="1.1" style="shape-rendering:geometricPrecision; text-rendering:geometricPrecision; image-rendering:optimizeQuality; fill-rule:evenodd; clip-rule:evenodd"
viewBox="0 0 1.04 1.04"
 xmlns:xlink="http://www.w3.org/1999/xlink"
 xmlns:xodm="http://www.corel.com/coreldraw/odm/2003">
 <defs>
  <style type="text/css">
   <![CDATA[
    .fil0 {fill:url(#id0)}
   ]]>
  </style>
  <linearGradient id="id0" gradientUnits="userSpaceOnUse" x1="0.61" y1="-0.35" x2="-0.26" y2="8.45">
   <stop offset="0" style="stop-opacity:1; stop-color:#9C4A9A"/>
   <stop offset="1" style="stop-opacity:1; stop-color:#4B4B9C"/>
  </linearGradient>
 </defs>
 <g id="Camada_x0020_1">
  <metadata id="CorelCorpID_0Corel-Layer"/>
  <path class="fil0" d="M0.52 1.04c-0.29,0 -0.52,-0.23 -0.52,-0.52 0,-0.29 0.23,-0.52 0.52,-0.52 0.29,0 0.52,0.23 0.52,0.52 0,0.29 -0.23,0.52 -0.52,0.52zm-0.31 -0.58c-0.03,0 -0.06,0.02 -0.07,0.05 -0.01,0.03 0,0.05 0.02,0.07 0.06,0.06 0.13,0.13 0.19,0.19 0.03,0.03 0.06,0.04 0.08,0.04 0.03,0 0.05,-0.01 0.08,-0.05l0.32 -0.42c0.05,-0.06 -0,-0.12 -0.06,-0.12 -0.02,0 -0.05,0.01 -0.07,0.04 -0.09,0.12 -0.19,0.25 -0.28,0.37l-0.16 -0.16 -0 -0c-0.01,-0.01 -0.03,-0.02 -0.05,-0.02z"/>
 </g>
</svg>
