<?xml version="1.0" encoding="UTF-8"?>
<!DOCTYPE svg PUBLIC "-//W3C//DTD SVG 1.1//EN" "http://www.w3.org/Graphics/SVG/1.1/DTD/svg11.dtd">
<!-- Creator: CorelDRAW -->
<svg xmlns="http://www.w3.org/2000/svg" xml:space="preserve" width="1.9868mm" height="2.3541mm" version="1.1" style="shape-rendering:geometricPrecision; text-rendering:geometricPrecision; image-rendering:optimizeQuality; fill-rule:evenodd; clip-rule:evenodd"
viewBox="0 0 1.27 1.5"
 xmlns:xlink="http://www.w3.org/1999/xlink"
 xmlns:xodm="http://www.corel.com/coreldraw/odm/2003">
 <defs>
  <style type="text/css">
   <![CDATA[
    .fil0 {fill:#FEFEFE}
   ]]>
  </style>
 </defs>
 <g id="Camada_x0020_1">
  <metadata id="CorelCorpID_0Corel-Layer"/>
  <path class="fil0" d="M0.1 0.65c-0.06,0 -0.1,0.05 -0.1,0.1l0 0.65c0,0.06 0.05,0.1 0.1,0.1l1.06 0c0.06,0 0.1,-0.05 0.1,-0.1l0 -0.65c0,-0.06 -0.05,-0.1 -0.1,-0.1l-0.06 0 0 -0.28c0,-0.1 -0.04,-0.19 -0.11,-0.26 -0.07,-0.07 -0.16,-0.11 -0.26,-0.11l-0.2 0c-0.1,0 -0.19,0.04 -0.26,0.11 -0.07,0.07 -0.11,0.16 -0.11,0.26l0 0.28 -0.06 0zm0.53 0.7c-0.03,0 -0.06,-0.03 -0.06,-0.06l0 -0.24c-0.04,-0.02 -0.07,-0.06 -0.07,-0.11 0,-0.07 0.06,-0.13 0.13,-0.13 0.07,0 0.13,0.06 0.13,0.13 0,0.05 -0.03,0.09 -0.07,0.11l0 0.24c0,0.03 -0.03,0.06 -0.06,0.06zm0.35 -0.7l-0.69 0 0 -0.28c0,-0.07 0.03,-0.13 0.07,-0.17 0.05,-0.05 0.11,-0.07 0.17,-0.07l0.2 0c0.07,0 0.13,0.03 0.17,0.07 0.05,0.04 0.07,0.11 0.07,0.17l0 0.28z"/>
 </g>
</svg>
